<svg width="32" height="32" viewBox="0 0 32 32" fill="none" xmlns="http://www.w3.org/2000/svg">
<path d="M14.3333 2.84961C15.9975 2.84961 17.594 3.51071 18.7708 4.6875C19.9475 5.86429 20.6086 7.46077 20.6086 9.125V9.84961H26.7336V27.5C26.7336 28.468 26.3488 29.3965 25.6643 30.0811C24.9798 30.7656 24.0513 31.1504 23.0833 31.1504H5.58325C4.61521 31.1504 3.6867 30.7656 3.0022 30.0811C2.31769 29.3965 1.93286 28.468 1.93286 27.5V9.84961H8.05786V9.125C8.05786 7.46077 8.71896 5.86429 9.89575 4.6875C11.0725 3.51071 12.669 2.84961 14.3333 2.84961ZM3.98364 27.5C3.98364 27.9243 4.15136 28.3318 4.45142 28.6318C4.75147 28.9319 5.15891 29.0996 5.58325 29.0996H23.0833C23.5076 29.0996 23.915 28.9319 24.2151 28.6318C24.5151 28.3318 24.6829 27.9243 24.6829 27.5V11.9004H3.98364V27.5ZM14.3333 4.90039C13.2127 4.90039 12.1383 5.34535 11.3459 6.1377C10.5536 6.93004 10.1086 8.00446 10.1086 9.125V9.84961H18.5579V9.125C18.5579 8.00446 18.1129 6.93004 17.3206 6.1377C16.5282 5.34535 15.4538 4.90039 14.3333 4.90039Z" fill="black" stroke="black" stroke-width="0.3"/>
<rect x="14.5833" y="0.5" width="16" height="16" rx="8" fill="#FF0000"/>
<rect x="14.5833" y="0.5" width="16" height="16" rx="8" stroke="white"/>
<path d="M22.595 13.1094C22.0741 13.1094 21.608 13.0117 21.1965 12.8164C20.7851 12.6185 20.4583 12.3477 20.2161 12.0039C19.9765 11.6602 19.8489 11.2669 19.8333 10.8242H21.2395C21.2655 11.1523 21.4075 11.4206 21.6653 11.6289C21.9231 11.8346 22.233 11.9375 22.595 11.9375C22.8788 11.9375 23.1314 11.8724 23.3528 11.7422C23.5741 11.612 23.7486 11.431 23.8762 11.1992C24.0038 10.9674 24.0663 10.7031 24.0637 10.4062C24.0663 10.1042 24.0025 9.83594 23.8723 9.60156C23.7421 9.36719 23.5637 9.18359 23.3372 9.05078C23.1106 8.91536 22.8502 8.84766 22.5559 8.84766C22.3163 8.84505 22.0806 8.88932 21.8489 8.98047C21.6171 9.07161 21.4335 9.19141 21.2981 9.33984L19.9895 9.125L20.4075 5H25.0481V6.21094H21.6067L21.3762 8.33203H21.4231C21.5715 8.15755 21.7812 8.01302 22.052 7.89844C22.3228 7.78125 22.6197 7.72266 22.9426 7.72266C23.427 7.72266 23.8593 7.83724 24.2395 8.06641C24.6197 8.29297 24.9192 8.60547 25.1379 9.00391C25.3567 9.40234 25.4661 9.85807 25.4661 10.3711C25.4661 10.8997 25.3437 11.3711 25.0989 11.7852C24.8567 12.1966 24.5194 12.5208 24.0872 12.7578C23.6575 12.9922 23.1601 13.1094 22.595 13.1094Z" fill="white"/>
</svg>
