<svg width="24" height="25" viewBox="0 0 24 25" fill="none" xmlns="http://www.w3.org/2000/svg">
<path d="M9.53603 4.41C9.53603 3.355 10.486 2.5 11.66 2.5C12.833 2.5 13.784 3.355 13.784 4.41C13.784 4.905 13.604 5.357 13.292 5.697C12.695 6.347 11.802 7.002 11.802 7.845V8.13M11.802 8.13C12.5417 8.11824 13.2676 8.33092 13.884 8.74L21.317 13.75C22.623 14.632 21.93 16.5 20.297 16.5H18M11.802 8.13C11.0686 8.13476 10.3537 8.36097 9.75103 8.779L2.65503 13.77C1.38303 14.665 2.08703 16.5 3.70303 16.5H6.00003" stroke="black" stroke-width="1.5" stroke-linecap="round"/>
<path d="M6 18.5C6 16.614 6 15.672 6.586 15.086C7.172 14.5 8.114 14.5 10 14.5H14C15.886 14.5 16.828 14.5 17.414 15.086C18 15.672 18 16.614 18 18.5C18 20.386 18 21.328 17.414 21.914C16.828 22.5 15.886 22.5 14 22.5H10C8.114 22.5 7.172 22.5 6.586 21.914C6 21.328 6 20.386 6 18.5Z" stroke="black" stroke-width="1.5"/>
</svg>
