<svg width="24" height="25" viewBox="0 0 24 25" fill="none" xmlns="http://www.w3.org/2000/svg">
<path fill-rule="evenodd" clip-rule="evenodd" d="M5.07897 5.56899C8.87397 1.77899 15.044 1.81899 18.862 5.63799C22.682 9.45799 22.722 15.631 18.926 19.426C15.13 23.221 8.95797 23.182 5.13797 19.362C4.06334 18.292 3.25141 16.9875 2.76593 15.5508C2.28045 14.1141 2.13465 12.5845 2.33997 11.082C2.36689 10.8848 2.47104 10.7064 2.62951 10.586C2.78798 10.4656 2.98778 10.4131 3.18497 10.44C3.38216 10.4669 3.56058 10.5711 3.68098 10.7295C3.80138 10.888 3.85389 11.0878 3.82697 11.285C3.65266 12.5583 3.77605 13.8547 4.18746 15.0723C4.59887 16.2898 5.28707 17.3954 6.19797 18.302C9.44297 21.546 14.666 21.565 17.866 18.366C21.065 15.166 21.046 9.94299 17.802 6.69799C14.559 3.45599 9.33897 3.43499 6.13897 6.62999L6.88697 6.63299C6.98546 6.63345 7.0829 6.6533 7.17372 6.69142C7.26454 6.72954 7.34696 6.78517 7.41628 6.85514C7.4856 6.92511 7.54046 7.00804 7.57772 7.09921C7.61499 7.19038 7.63393 7.288 7.63347 7.38649C7.63301 7.48498 7.61316 7.58242 7.57504 7.67324C7.53693 7.76406 7.4813 7.84648 7.41133 7.9158C7.34136 7.98511 7.25842 8.03997 7.16725 8.07724C7.07608 8.11451 6.97846 8.13345 6.87997 8.13299L4.33397 8.12099C4.13627 8.11994 3.94699 8.04087 3.80728 7.90098C3.66758 7.76109 3.58876 7.57169 3.58797 7.37399L3.57497 4.82999C3.57445 4.7315 3.59333 4.63387 3.63053 4.54267C3.66774 4.45148 3.72254 4.3685 3.79181 4.29849C3.86109 4.22847 3.94347 4.17279 4.03427 4.13461C4.12506 4.09644 4.22248 4.07652 4.32097 4.07599C4.41946 4.07547 4.5171 4.09434 4.60829 4.13155C4.69949 4.16876 4.78246 4.22356 4.85248 4.29283C4.92249 4.3621 4.97818 4.44449 5.01635 4.53528C5.05453 4.62608 5.07445 4.7235 5.07497 4.82199L5.07897 5.56899ZM11.999 7.74899C12.1979 7.74899 12.3887 7.82801 12.5293 7.96866C12.67 8.10931 12.749 8.30008 12.749 8.49899V12.189L15.03 14.469C15.1016 14.5381 15.1588 14.6209 15.1982 14.7124C15.2375 14.8038 15.2582 14.9022 15.2592 15.0018C15.2601 15.1014 15.2411 15.2002 15.2035 15.2924C15.1658 15.3846 15.1102 15.4683 15.0398 15.5388C14.9694 15.6092 14.8857 15.665 14.7935 15.7027C14.7014 15.7405 14.6026 15.7595 14.503 15.7587C14.4034 15.7579 14.305 15.7372 14.2135 15.698C14.122 15.6587 14.0392 15.6016 13.97 15.53L11.25 12.81V8.49999C11.25 8.30108 11.329 8.11031 11.4696 7.96966C11.6103 7.82901 11.8011 7.74999 12 7.74999" fill="black"/>
</svg>
