<svg width="26" height="22" viewBox="0 0 26 22" fill="none" xmlns="http://www.w3.org/2000/svg">
<path d="M18.1355 0.393555C19.9283 0.395643 21.6471 1.10923 22.9148 2.37695C24.1825 3.64467 24.8961 5.36343 24.8982 7.15625C24.8982 10.4364 22.8548 13.8106 18.9109 17.1855V17.1865C17.1018 18.7281 15.1468 20.0901 13.075 21.2549L13.072 21.2568C12.9474 21.3238 12.8082 21.3594 12.6667 21.3594C12.5253 21.3594 12.3861 21.3238 12.2615 21.2568L12.2585 21.2549C10.1867 20.0901 8.23171 18.7281 6.42261 17.1865V17.1855C2.47868 13.8106 0.435303 10.4364 0.435303 7.15625C0.437391 5.36343 1.15098 3.64467 2.4187 2.37695C3.68642 1.10923 5.40517 0.395643 7.198 0.393555L7.63647 0.40625C9.70955 0.524033 11.5159 1.47741 12.6667 3.02441C13.898 1.36927 15.88 0.393555 18.1355 0.393555ZM17.738 2.11914C15.9027 2.24245 14.3761 3.21923 13.6111 4.74023L13.4587 5.07422C13.3942 5.23126 13.2843 5.36543 13.1433 5.45996C13.0023 5.55448 12.8365 5.60547 12.6667 5.60547C12.497 5.60547 12.3312 5.55448 12.1902 5.45996C12.0844 5.38906 11.9961 5.29597 11.9314 5.1875L11.8748 5.07422C11.1275 3.24905 9.34299 2.10645 7.198 2.10645C5.8591 2.10789 4.57541 2.64017 3.62866 3.58691C2.68192 4.53366 2.14964 5.81735 2.14819 7.15625L2.15405 7.43262C2.28355 10.2889 4.39576 13.0201 6.76929 15.2012C9.12312 17.3642 11.688 18.9428 12.6667 19.5137C13.6455 18.9428 16.2104 17.3642 18.5642 15.2012C21.0142 12.9498 23.1853 10.1124 23.1853 7.15625L23.1794 6.90625C23.1164 5.65841 22.5925 4.47457 21.7048 3.58691C20.7581 2.64017 19.4744 2.10789 18.1355 2.10645L17.738 2.11914Z" fill="black" stroke="#181818" stroke-width="0.4"/>
</svg>
