<svg width="38" height="14" viewBox="0 0 38 14" fill="none" xmlns="http://www.w3.org/2000/svg">
<path d="M0.924893 0.409091H4.33825L7.94336 9.20455H8.09677L11.7019 0.409091H15.1152V13.5H12.4306V4.9794H12.3219L8.93413 13.4361H7.106L3.71822 4.94744H3.60955V13.5H0.924893V0.409091ZM21.8189 13.6918C20.8089 13.6918 19.9396 13.4872 19.2109 13.0781C18.4865 12.6648 17.9283 12.081 17.5362 11.3267C17.1442 10.5682 16.9482 9.67116 16.9482 8.63565C16.9482 7.62571 17.1442 6.73935 17.5362 5.97656C17.9283 5.21378 18.4801 4.61932 19.1918 4.19318C19.9077 3.76705 20.7472 3.55398 21.7102 3.55398C22.358 3.55398 22.9609 3.65838 23.5192 3.86719C24.0817 4.07173 24.5717 4.38068 24.9893 4.79403C25.4112 5.20739 25.7393 5.72727 25.9737 6.35369C26.2081 6.97585 26.3253 7.70455 26.3253 8.53977V9.28764H18.0348V7.60014H23.7621C23.7621 7.2081 23.6768 6.8608 23.5064 6.55824C23.3359 6.25568 23.0994 6.01918 22.7969 5.84872C22.4986 5.67401 22.1513 5.58665 21.755 5.58665C21.3416 5.58665 20.9751 5.68253 20.6555 5.87429C20.3402 6.06179 20.093 6.31534 19.9141 6.63494C19.7351 6.95028 19.6435 7.30185 19.6392 7.68963V9.29403C19.6392 9.77983 19.7287 10.1996 19.9077 10.5533C20.0909 10.907 20.3487 11.1797 20.6811 11.3714C21.0135 11.5632 21.4077 11.6591 21.8636 11.6591C22.1662 11.6591 22.4432 11.6165 22.6946 11.5312C22.946 11.446 23.1612 11.3182 23.3402 11.1477C23.5192 10.9773 23.6555 10.7685 23.7493 10.5213L26.2678 10.6875C26.1399 11.2926 25.8778 11.821 25.4815 12.2727C25.0895 12.7202 24.5824 13.0696 23.9602 13.321C23.3423 13.5682 22.6286 13.6918 21.8189 13.6918ZM30.8253 7.82386V13.5H28.1023V3.68182H30.6974V5.41406H30.8125C31.0298 4.84304 31.3942 4.39133 31.9055 4.05895C32.4169 3.7223 33.0369 3.55398 33.7656 3.55398C34.4474 3.55398 35.0419 3.70312 35.549 4.00142C36.0561 4.29972 36.4503 4.72585 36.7315 5.27983C37.0128 5.82955 37.1534 6.4858 37.1534 7.24858V13.5H34.4304V7.73438C34.4347 7.13352 34.2813 6.66477 33.9702 6.32812C33.6591 5.98722 33.2308 5.81676 32.6854 5.81676C32.3189 5.81676 31.995 5.8956 31.7138 6.05327C31.4368 6.21094 31.2195 6.44105 31.0618 6.74361C30.9084 7.0419 30.8295 7.40199 30.8253 7.82386Z" fill="black"/>
</svg>
