<svg width="20" height="21" viewBox="0 0 20 21" fill="none" xmlns="http://www.w3.org/2000/svg">
<path d="M3.5 4.5C3.10218 4.5 2.72064 4.65804 2.43934 4.93934C2.15804 5.22064 2 5.60218 2 6V8C2 8.39782 2.15804 8.77936 2.43934 9.06066C2.72064 9.34196 3.10218 9.5 3.5 9.5H5.5C5.89782 9.5 6.27936 9.34196 6.56066 9.06066C6.84196 8.77936 7 8.39782 7 8V6C7 5.60218 6.84196 5.22064 6.56066 4.93934C6.27936 4.65804 5.89782 4.5 5.5 4.5H3.5ZM3 6C3 5.86739 3.05268 5.74021 3.14645 5.64645C3.24021 5.55268 3.36739 5.5 3.5 5.5H5.5C5.63261 5.5 5.75979 5.55268 5.85355 5.64645C5.94732 5.74021 6 5.86739 6 6V8C6 8.13261 5.94732 8.25979 5.85355 8.35355C5.75979 8.44732 5.63261 8.5 5.5 8.5H3.5C3.36739 8.5 3.24021 8.44732 3.14645 8.35355C3.05268 8.25979 3 8.13261 3 8V6ZM9.5 5.5C9.36739 5.5 9.24021 5.55268 9.14645 5.64645C9.05268 5.74021 9 5.86739 9 6C9 6.13261 9.05268 6.25979 9.14645 6.35355C9.24021 6.44732 9.36739 6.5 9.5 6.5H17.5C17.6326 6.5 17.7598 6.44732 17.8536 6.35355C17.9473 6.25979 18 6.13261 18 6C18 5.86739 17.9473 5.74021 17.8536 5.64645C17.7598 5.55268 17.6326 5.5 17.5 5.5H9.5ZM9.5 7.5C9.36739 7.5 9.24021 7.55268 9.14645 7.64645C9.05268 7.74021 9 7.86739 9 8C9 8.13261 9.05268 8.25979 9.14645 8.35355C9.24021 8.44732 9.36739 8.5 9.5 8.5H15.5C15.6326 8.5 15.7598 8.44732 15.8536 8.35355C15.9473 8.25979 16 8.13261 16 8C16 7.86739 15.9473 7.74021 15.8536 7.64645C15.7598 7.55268 15.6326 7.5 15.5 7.5H9.5ZM3.5 11.5C3.10218 11.5 2.72064 11.658 2.43934 11.9393C2.15804 12.2206 2 12.6022 2 13V15C2 15.3978 2.15804 15.7794 2.43934 16.0607C2.72064 16.342 3.10218 16.5 3.5 16.5H5.5C5.89782 16.5 6.27936 16.342 6.56066 16.0607C6.84196 15.7794 7 15.3978 7 15V13C7 12.6022 6.84196 12.2206 6.56066 11.9393C6.27936 11.658 5.89782 11.5 5.5 11.5H3.5ZM3 13C3 12.8674 3.05268 12.7402 3.14645 12.6464C3.24021 12.5527 3.36739 12.5 3.5 12.5H5.5C5.63261 12.5 5.75979 12.5527 5.85355 12.6464C5.94732 12.7402 6 12.8674 6 13V15C6 15.1326 5.94732 15.2598 5.85355 15.3536C5.75979 15.4473 5.63261 15.5 5.5 15.5H3.5C3.36739 15.5 3.24021 15.4473 3.14645 15.3536C3.05268 15.2598 3 15.1326 3 15V13ZM9.5 12.5C9.36739 12.5 9.24021 12.5527 9.14645 12.6464C9.05268 12.7402 9 12.8674 9 13C9 13.1326 9.05268 13.2598 9.14645 13.3536C9.24021 13.4473 9.36739 13.5 9.5 13.5H17.5C17.6326 13.5 17.7598 13.4473 17.8536 13.3536C17.9473 13.2598 18 13.1326 18 13C18 12.8674 17.9473 12.7402 17.8536 12.6464C17.7598 12.5527 17.6326 12.5 17.5 12.5H9.5ZM9.5 14.5C9.36739 14.5 9.24021 14.5527 9.14645 14.6464C9.05268 14.7402 9 14.8674 9 15C9 15.1326 9.05268 15.2598 9.14645 15.3536C9.24021 15.4473 9.36739 15.5 9.5 15.5H15.5C15.6326 15.5 15.7598 15.4473 15.8536 15.3536C15.9473 15.2598 16 15.1326 16 15C16 14.8674 15.9473 14.7402 15.8536 14.6464C15.7598 14.5527 15.6326 14.5 15.5 14.5H9.5Z" fill="black"/>
</svg>
