<svg width="22" height="19" viewBox="0 0 22 19" fill="none" xmlns="http://www.w3.org/2000/svg">
<path d="M16 17.5C16.5304 17.5 17.0391 17.2893 17.4142 16.9142C17.7893 16.5391 18 16.0304 18 15.5C18 14.9696 17.7893 14.4609 17.4142 14.0858C17.0391 13.7107 16.5304 13.5 16 13.5C15.4696 13.5 14.9609 13.7107 14.5858 14.0858C14.2107 14.4609 14 14.9696 14 15.5C14 16.0304 14.2107 16.5391 14.5858 16.9142C14.9609 17.2893 15.4696 17.5 16 17.5ZM6 17.5C6.53043 17.5 7.03914 17.2893 7.41421 16.9142C7.78929 16.5391 8 16.0304 8 15.5C8 14.9696 7.78929 14.4609 7.41421 14.0858C7.03914 13.7107 6.53043 13.5 6 13.5C5.46957 13.5 4.96086 13.7107 4.58579 14.0858C4.21071 14.4609 4 14.9696 4 15.5C4 16.0304 4.21071 16.5391 4.58579 16.9142C4.96086 17.2893 5.46957 17.5 6 17.5Z" stroke="black" stroke-width="1.5" stroke-linecap="round" stroke-linejoin="round"/>
<path d="M18 8.5H21M21 8.5V10.5C21 12.857 21 14.035 20.268 14.768C19.781 15.255 19.097 15.418 18 15.472M21 8.5L19.724 6.13C19.034 4.848 18.689 4.207 18.096 3.854C17.504 3.5 16.777 3.5 15.321 3.5H13.5M4 15.472C2.903 15.418 2.22 15.255 1.732 14.768C1 14.035 1 12.857 1 10.5V6.5C1 4.143 1 2.964 1.732 2.232C2.464 1.5 3.643 1.5 6 1.5H9.3C10.417 1.5 10.975 1.5 11.427 1.647C11.8772 1.7933 12.2864 2.04408 12.6212 2.37882C12.9559 2.71356 13.2067 3.12277 13.353 3.573C13.5 4.025 13.5 4.583 13.5 5.7C13.5 6.92 13.5 7.531 13.166 7.944C13.1 8.02533 13.026 8.09933 12.944 8.166C12.531 8.5 11.921 8.5 10.7 8.5H7M14 15.5H8" stroke="black" stroke-width="1.5" stroke-linecap="round" stroke-linejoin="round"/>
<path d="M9 10.5C9 10.5 8.328 9.944 7.737 9.416C7.32 9.08 7 8.793 7 8.505C7 8.25 7.25 8.013 7.656 7.641C8.232 7.162 9 6.5 9 6.5" stroke="black" stroke-width="1.5" stroke-linecap="round" stroke-linejoin="round"/>
</svg>
