<svg width="24" height="25" viewBox="0 0 24 25" fill="none" xmlns="http://www.w3.org/2000/svg">
<path d="M5 10.479C5 11.595 6.79 12.5 9 12.5V10.479C9 9.48501 9 8.98701 8.603 8.68401C8.205 8.38101 7.811 8.49401 7.023 8.72101C5.815 9.07001 5 9.72501 5 10.479Z" stroke="black" stroke-width="1.5" stroke-linecap="round" stroke-linejoin="round"/>
<path d="M16 9C16 10.933 12.866 12.5 9 12.5C5.134 12.5 2 10.933 2 9C2 7.067 5.134 5.5 9 5.5C12.866 5.5 16 7.067 16 9Z" stroke="black" stroke-width="1.5" stroke-linecap="round" stroke-linejoin="round"/>
<path d="M2 9.5V16.167C2 18.007 5.134 19.5 9 19.5H20C20.943 19.5 21.414 19.5 21.707 19.207C22 18.914 22 18.443 22 17.5V14.5C22 13.557 22 13.086 21.707 12.793C21.414 12.5 20.943 12.5 20 12.5H9M18 19.5V17.5M14 19.5V17.5M10 19.5V17.5M6 19V17" stroke="black" stroke-width="1.5" stroke-linecap="round" stroke-linejoin="round"/>
</svg>
